<svg width="25" height="24" viewBox="0 0 25 24" fill="none" xmlns="http://www.w3.org/2000/svg">
<path fill-rule="evenodd" clip-rule="evenodd" d="M7.23626 12.7934C7.1014 12.2369 6.96967 11.5372 6.67751 10.49C6.44505 9.66262 6.19236 9.21125 6.01248 8.65519C5.79472 7.97871 5.58136 7.58135 5.30678 6.89625C5.10895 6.40622 4.79474 5.3379 4.66793 4.75642C4.50591 4.00144 4.74725 3.39406 5.07278 2.98487C5.46313 2.49295 6.53125 2.29339 7.11912 2.51146C7.67129 2.71546 8.21832 3.29137 8.46735 3.70427C8.8844 4.39249 8.98232 4.64855 9.49282 6.00314C10.0502 7.47982 10.2767 8.85182 10.3371 9.31521L10.45 9.98497C10.4497 9.92591 10.4217 8.32795 10.4215 8.2689C10.4022 6.74937 10.3904 5.57694 10.4594 3.93091C10.4664 3.74505 10.5743 3.06684 10.6084 2.87863C10.7415 2.14339 11.0916 1.70817 11.6493 1.45611C12.2736 1.17304 13.0449 1.16924 13.7508 1.47699C14.3796 1.74614 14.6719 2.3091 14.7481 3.00757C14.7656 3.16887 14.8572 4.46706 14.8518 4.6441C14.7992 6.15614 14.8078 7.06572 14.8041 7.85251C14.8027 8.1935 14.7562 10.2504 14.7822 10.0207C14.8949 9.05471 15.0261 5.31814 15.4253 4.21523C15.6553 3.58103 16.0568 3.12774 16.646 2.87047C17.2989 2.58506 18.3174 2.80369 18.7437 3.2751C19.1612 3.7345 19.3902 4.31083 19.4293 4.99226C19.4642 5.59092 19.3719 6.31523 19.3591 6.8287C19.3311 8.10803 19.2849 8.78168 19.2352 9.9572C19.2324 10.0132 19.203 10.3964 19.2638 10.2265C19.4138 9.81643 19.5632 9.43291 19.6867 9.13593C19.7643 8.95309 20.068 8.23782 20.2528 7.88018C20.4313 7.53863 20.5812 7.34261 20.8974 6.87859C21.2074 6.4233 21.5342 6.23115 21.9173 6.07271C22.7347 5.74366 23.5768 6.27436 23.8492 6.98746C23.9712 7.30753 23.8397 8.03985 23.7716 8.61706C23.6592 9.56976 23.3485 10.5358 23.1905 11.0373C22.9841 11.6927 22.7397 12.8506 22.6289 13.3885C22.5082 13.9675 22.2334 15.4201 22.0318 16.0623C21.8931 16.5036 21.4439 17.4933 21.0094 18.0831C21.0094 18.0831 19.3584 19.8924 19.1633 20.7178C18.9697 21.5447 19.028 21.5519 18.9807 22.1384C18.9318 22.7264 19.1323 23.5043 19.1323 23.5043C19.1323 23.5043 17.9263 23.6315 17.2807 23.514C16.6963 23.4097 15.9956 22.2443 15.8158 21.8905C15.5685 21.4009 15.0161 21.4818 14.7938 21.8342C14.444 22.392 13.696 23.3898 13.1818 23.4421C12.1773 23.5441 10.1005 23.4189 8.47375 23.3686C8.47375 23.3686 8.78382 21.8828 8.17717 21.3573C7.72818 20.9636 6.95778 20.1732 6.4958 19.7556L5.27783 18.3693C4.86356 17.8288 4.36984 16.7359 3.47786 15.3995C2.97226 14.6444 1.97275 13.7648 1.60329 13.0275C1.28259 12.393 1.13771 11.6089 1.36114 11.0661C1.71773 10.197 2.40235 9.76462 3.43051 9.88307C4.20721 9.97388 4.69555 10.2149 5.26973 10.7161C5.60101 11.0038 6.11178 11.5228 6.37031 11.8444C6.60846 12.1375 6.66583 12.2583 6.91924 12.6079C7.25425 13.0684 7.35732 13.2951 7.23626 12.7934Z" fill="white"/>
<path d="M7.23626 12.7934C7.1014 12.2369 6.96967 11.5372 6.67751 10.49C6.44505 9.66262 6.19236 9.21125 6.01248 8.65519C5.79472 7.97871 5.58136 7.58135 5.30678 6.89625C5.10895 6.40622 4.79474 5.3379 4.66793 4.75642C4.50591 4.00144 4.74725 3.39406 5.07278 2.98487C5.46313 2.49295 6.53125 2.29339 7.11912 2.51146C7.67129 2.71546 8.21832 3.29137 8.46735 3.70427C8.8844 4.39249 8.98232 4.64855 9.49282 6.00314C10.0502 7.47982 10.2767 8.85182 10.3371 9.31521L10.45 9.98497C10.4497 9.92591 10.4217 8.32795 10.4215 8.2689C10.4022 6.74937 10.3904 5.57694 10.4594 3.93091C10.4664 3.74505 10.5743 3.06684 10.6084 2.87863C10.7415 2.14339 11.0916 1.70817 11.6493 1.45611C12.2736 1.17304 13.0449 1.16924 13.7508 1.47699C14.3796 1.74614 14.6719 2.3091 14.7481 3.00757C14.7656 3.16887 14.8572 4.46706 14.8518 4.6441C14.7992 6.15614 14.8078 7.06572 14.8041 7.85251C14.8027 8.1935 14.7562 10.2504 14.7822 10.0207C14.8949 9.05471 15.0261 5.31814 15.4253 4.21523C15.6553 3.58103 16.0568 3.12774 16.646 2.87047C17.2989 2.58506 18.3174 2.80369 18.7437 3.2751C19.1612 3.7345 19.3902 4.31083 19.4293 4.99226C19.4642 5.59092 19.3719 6.31523 19.3591 6.8287C19.3311 8.10803 19.2849 8.78168 19.2352 9.9572C19.2324 10.0132 19.203 10.3964 19.2638 10.2265C19.4138 9.81643 19.5632 9.43291 19.6867 9.13593C19.7643 8.95309 20.068 8.23782 20.2528 7.88018C20.4313 7.53863 20.5812 7.34261 20.8974 6.87859C21.2074 6.4233 21.5342 6.23115 21.9173 6.07271C22.7347 5.74366 23.5768 6.27436 23.8492 6.98746C23.9712 7.30753 23.8397 8.03985 23.7716 8.61706C23.6592 9.56976 23.3485 10.5358 23.1905 11.0373C22.9841 11.6927 22.7397 12.8506 22.6289 13.3885C22.5082 13.9675 22.2334 15.4201 22.0318 16.0623C21.8931 16.5036 21.4439 17.4933 21.0094 18.0831C21.0094 18.0831 19.3584 19.8924 19.1633 20.7178C18.9697 21.5447 19.028 21.5519 18.9807 22.1384C18.9318 22.7264 19.1323 23.5043 19.1323 23.5043C19.1323 23.5043 17.9263 23.6315 17.2807 23.514C16.6963 23.4097 15.9956 22.2443 15.8158 21.8905C15.5685 21.4009 15.0161 21.4818 14.7938 21.8342C14.444 22.392 13.696 23.3898 13.1818 23.4421C12.1773 23.5441 10.1005 23.4189 8.47375 23.3686C8.47375 23.3686 8.78382 21.8828 8.17717 21.3573C7.72818 20.9636 6.95778 20.1732 6.4958 19.7556L5.27783 18.3693C4.86356 17.8288 4.36984 16.7359 3.47786 15.3995C2.97226 14.6444 1.97275 13.7648 1.60329 13.0275C1.28259 12.393 1.13771 11.6089 1.36114 11.0661C1.71773 10.197 2.40235 9.76462 3.43051 9.88307C4.20721 9.97388 4.69555 10.2149 5.26973 10.7161C5.60101 11.0038 6.11178 11.5228 6.37031 11.8444C6.60846 12.1375 6.66583 12.2583 6.91924 12.6079C7.25425 13.0684 7.35732 13.2951 7.23626 12.7934" stroke="black" stroke-width="0.75" stroke-linecap="round" stroke-linejoin="round"/>
</svg>
